<svg width="84" height="82" viewBox="0 0 84 82" fill="none" xmlns="http://www.w3.org/2000/svg">
<g filter="url(#filter0_d_4166_407)">
<path d="M37.6058 21.4996C33.7181 21.8741 18.3217 21.2068 11.2985 32.053C2.25632 46.0163 10.4216 58.2782 19.5261 63.8926C25.982 67.8738 40.3629 72.7104 48.4592 71.2345C56.2643 69.8108 68.6527 59.8808 73.0513 50.6396C78.3686 39.4691 78.7069 25.303 64.0265 19.1991C50.0381 13.3825 41.9202 21.0843 37.6058 21.4996Z" fill="white"/>
</g>
<path d="M34.0183 44.3451C32.8777 44.5228 32.739 43.0579 31.9717 39.8163C30.671 34.3186 31.1441 34.932 32.677 34.6823C33.3087 34.5842 34.2114 33.1263 35.8161 33.6864C38.6654 34.6539 39.505 41.7087 34.7727 41.152C33.5304 41.0058 35.6049 44.0896 34.0183 44.3451ZM34.4125 35.6349C31.9223 36.0242 34.7375 41.4112 35.8211 38.7754C36.301 37.6395 35.5982 35.4462 34.4125 35.6349Z" fill="#014E72"/>
<path d="M42.6691 42.4104C41.1925 42.6435 42.4284 40.695 42.5766 39.7423C42.6558 39.2151 41.7808 39.6488 40.9146 39.2113C39.6109 38.5595 37.9161 34.1294 38.8796 33.2991C40.3199 32.0577 40.9079 37.3979 42.0882 37.2118C43.5199 36.9858 42.1215 33.3755 42.9501 32.5164C45.096 30.3133 45.7584 41.9304 42.6691 42.4104Z" fill="#EE765E"/>
<path d="M51.4853 38.5077C51.1015 38.568 50.6356 38.326 50.4597 37.6508C50.3832 37.355 50.0128 35.0242 49.8538 34.5203C49.6496 33.8797 49.293 33.5709 48.9492 33.7382C48.7954 33.8113 48.507 34.0884 48.2929 35.1187C48.2408 35.3687 48.1608 37.4084 48.1268 37.6634C48.0252 38.4059 47.8493 38.818 47.5556 39C47.4678 39.0546 47.3731 39.0909 47.274 39.1054C46.9448 39.1575 46.6376 38.968 46.4803 38.7579C46.2305 38.4272 46.1667 37.851 46.1593 37.4253C46.1586 37.3743 46.0115 34.9292 46.0142 34.7036C46.0285 33.629 46.1771 33.1193 46.5173 33.0294C46.9777 32.9078 47.0979 32.7015 47.2972 32.527C47.3603 32.4722 48.2578 31.7166 48.7574 31.5774C49.5097 31.3692 50.1877 31.666 50.6095 31.9302C50.9236 32.1308 51.0673 32.2164 51.2592 32.2026C51.401 32.1805 52.0363 31.5726 52.1304 31.4917C52.4634 31.2027 52.8759 31.0134 53.3245 30.9436C53.7947 30.8696 54.198 30.9427 54.4189 31.0364C54.893 31.2351 55.4706 31.9252 55.6549 32.5131C55.8001 32.982 56.4698 35.8027 56.5465 36.3869C56.6195 36.9276 56.626 37.5739 56.0293 37.7753C55.6433 37.9093 55.0377 37.6604 54.7885 36.9629C54.6796 36.6551 54.1307 34.4619 54.1307 34.4619C54.058 34.1776 53.7319 33.4024 53.3314 33.4241L53.3299 33.4243C53.0535 33.4683 52.7838 33.8982 52.6584 34.2826C52.5664 34.563 52.4509 37.0607 52.3895 37.3127C52.2329 37.9357 52.139 38.3114 51.5956 38.4815C51.559 38.4939 51.522 38.5025 51.4853 38.5077Z" fill="#014E72"/>
<path d="M24.2986 45.1858L24.2978 45.1859C23.4982 45.3112 23.0584 44.6386 22.9556 44.3683L22.967 44.3637C22.901 44.2392 22.8121 44.0303 22.6663 43.687C22.5657 43.6233 22.41 43.5497 22.2485 43.5661C21.7236 43.6213 20.5076 43.5209 19.7259 43.311C17.814 42.7937 17.303 42.3048 16.8512 41.8725C16.7758 41.801 16.7021 41.7301 16.6224 41.6615C15.7321 40.8928 15.228 39.7511 15.2393 38.5282C15.2494 37.3215 15.7951 36.258 16.3562 35.7639C16.2766 35.7224 16.2008 35.667 16.1327 35.5962C15.8177 35.2775 15.6347 34.3283 16.49 33.1488C17.2199 32.138 17.9467 31.682 18.4766 31.3482C18.7435 31.1815 19.0331 31.064 19.3129 30.9508C19.5124 30.8689 19.7144 30.7877 19.9122 30.6853C20.2768 30.4994 20.2997 30.0884 20.2927 29.9207L20.3065 29.8256C20.4902 29.2943 20.8023 28.9575 21.1851 28.8757L21.2565 28.8622C21.8693 28.7668 22.2373 29.1238 22.3668 29.4571C22.4914 29.7767 22.8179 29.9422 23.4273 29.995L23.8205 30.0302C25.6867 30.1927 26.0306 30.3586 27.169 30.9093L27.5458 31.0911C28.7681 31.674 29.6792 33.434 29.929 34.1944C30.16 34.906 30.4244 36.0466 30.0666 37.7351C29.7549 39.2078 29.0756 40.0479 28.626 40.6044C27.6315 41.8335 26.0261 42.6003 25.4903 42.7942C25.3055 42.8598 25.2664 43.0731 25.2783 43.9328C25.2839 44.298 25.2945 44.9782 24.4032 45.165C24.3724 45.1728 24.3353 45.1805 24.2986 45.1858ZM17.4829 35.2352C17.8394 35.1917 18.0673 35.3038 18.1746 35.377C18.3904 35.5265 18.4722 35.7881 18.4003 36.0965C18.3795 36.1925 18.3046 36.3007 18.1854 36.4686C17.9653 36.779 17.8775 37.38 17.8144 37.9829C17.7493 38.5948 18.0829 39.5815 18.5282 40.0968C18.9529 40.5875 19.1555 40.7394 19.8762 40.9488C20.5489 41.1432 21.3689 41.1265 21.7287 41.0707L21.7993 41.0573C21.9671 41.0216 22.0866 40.9536 22.153 40.8536C22.2308 40.7371 22.2452 40.5683 22.1945 40.354C22.0943 39.9229 22.003 39.3165 21.9059 38.6756C21.831 38.1782 21.7529 37.6605 21.6652 37.1943C21.469 36.1309 20.9889 33.9685 20.8686 33.5669C20.7629 33.2139 20.6694 33.1758 20.5792 33.1388C20.4814 33.098 20.3376 33.09 20.1632 33.1176C19.8822 33.1622 19.6193 33.2773 19.5086 33.3395C18.7565 33.7507 18.4671 34.0064 18.3148 34.1632C17.9258 34.5653 17.737 34.8264 17.4829 35.2352ZM23.9851 32.4955C23.75 32.5329 23.6963 32.6457 23.5909 32.9853C23.4771 33.3411 23.5702 34.4314 23.8641 36.225L23.8765 36.3009C23.9956 37.031 24.4641 39.2092 24.6177 39.5524C24.787 39.9256 24.8642 40.0967 25.2463 40.146C25.5252 40.1816 25.8668 39.9962 26.3199 39.5663C27.314 38.6272 27.7172 37.514 27.6692 35.8438C27.6351 34.7103 26.836 33.563 26.0832 33.1091C25.1659 32.5554 24.6243 32.4599 24.0918 32.4857C24.0515 32.4874 24.017 32.4908 23.9851 32.4955Z" fill="#FCBD14"/>
<path d="M59.346 55.6221C57.3609 55.0801 59.6297 53.2417 60.2201 51.2443C60.5296 50.1972 60.2851 50.094 59.5505 49.9359C57.2463 49.4377 56.5234 47.7574 57.0399 45.3958C57.9785 41.0267 64.4678 39.9918 65.4346 43.6271C65.4474 43.6752 67.4997 50.8759 67.5826 51.2742C67.9585 53.0659 66.2084 53.1754 66.5311 53.1223C64.5107 53.4547 65.0384 49.4209 63.9013 49.6062C61.8403 49.9488 62.2655 56.4192 59.346 55.6221ZM60.7505 43.8621C58.8307 44.7439 59.2171 49.3462 62.387 47.6867C65.1492 46.2406 63.3228 42.6775 60.7505 43.8621Z" fill="#014E72"/>
<path d="M54.9926 56.5722C52.7165 56.9377 54.0083 51.5138 52.8702 50.7718C52.0679 50.2397 48.5367 50.9671 48.2393 51.1475C46.4696 52.2207 48.6038 57.1931 46.5527 57.5262C44.7953 57.8004 44.9778 55.0937 44.7931 50.3832C44.6466 46.6472 43.9267 43.9668 45.7477 43.5806C47.633 43.2307 46.4138 48.211 47.6025 48.6356C48.5815 48.9893 50.571 48.6565 51.6705 48.225C52.8612 47.7555 52.9748 46.4008 52.8229 45.1533C52.4872 42.3977 53.1002 42.0104 53.3892 41.8979C54.6511 41.4068 55.1028 44.1456 55.2435 46.3039C55.8688 55.8406 56.5325 56.3221 54.9926 56.5722Z" fill="#014E72"/>
<path d="M35.0075 58.9045C32.4366 59.3212 35.6097 55.0823 35.8346 54.6664C36.4716 53.4895 36.1803 53.4826 35.4826 53.1571C33.3214 52.1505 33.096 50.3175 34.137 48.1754C36.1074 44.0737 42.629 44.4353 42.6982 48.2494C42.6992 48.2991 42.9661 55.7574 42.95 56.1923C42.8745 58.3919 40.4803 58.1851 40.4439 56.2092C40.3757 52.1984 38.6416 54.2837 36.6807 57.7364C36.4232 58.1864 35.9767 58.7458 35.0075 58.9045ZM37.5054 47.8825C35.1825 48.7781 36.246 52.364 38.7362 51.6223C41.4686 50.8094 39.9514 46.9413 37.5054 47.8825Z" fill="#014E72"/>
<path d="M23.6904 62.5449C21.9482 62.8288 22.8125 60.2272 19.1148 49.5461C18.2551 47.0734 20.4179 46.2959 21.191 48.293C22.2539 51.0356 22.864 52.8639 23.4158 52.975C24.4694 53.1865 26.5185 52.4617 27.5768 51.8283C29.6317 50.6007 26.8238 45.1027 28.5413 44.5161C29.9923 44.0089 30.2953 46.2934 31.7924 52.7512C32.8051 57.1469 34.5148 59.8061 32.4298 60.1406C30.0374 60.4982 31.0473 53.7646 28.2251 54.225C27.7355 54.3062 27.4054 54.4424 26.6809 54.6743C25.302 55.1215 23.9495 55.4187 24.0805 56.9468C24.2391 58.6824 25.4945 62.2566 23.6904 62.5449Z" fill="#014E72"/>
<path d="M61.0899 29.9747C59.1153 29.7103 57.5683 31.0875 57.2657 33.6648C56.9646 36.2411 57.9968 37.7387 59.9903 37.9687C61.9831 38.199 63.8609 36.5226 63.9794 33.8799C64.098 31.238 62.5709 30.1729 61.0899 29.9747ZM62.0215 34.1176C61.9108 35.3717 61.078 36.2409 60.214 36.0466C59.3492 35.8515 59.0071 35.1343 59.1984 33.8128C59.3896 32.4898 59.8991 31.8069 60.8889 31.8222C61.8318 31.8375 62.133 32.8642 62.0215 34.1176Z" fill="#4AAE42"/>
<path d="M63.0883 2.41768C63.0883 2.41768 51.4929 0.919427 44.6402 6.05655C36.759 11.9648 38.5044 21.329 38.5044 21.329C44.3209 19.6453 47.118 24.2967 55.8981 20.3029C65.9549 15.7284 63.0883 2.41768 63.0883 2.41768Z" fill="#00615C"/>
<path d="M27.3158 9.33206C27.3158 9.33206 27.14 12.5663 28.8595 15.4549C30.5789 18.3435 33.0338 18.8477 34.4227 19.0227C35.8116 19.1978 37.1455 18.9206 37.1455 18.9206C37.1455 18.9206 36.6709 17.8309 36.5787 15.2031C36.4866 12.5752 36.014 10.5674 33.1535 9.53891C30.2929 8.51046 27.7492 10.0825 27.3158 9.33206Z" fill="#00615C"/>
<defs>
<filter id="filter0_d_4166_407" x="0.621656" y="13.6628" width="82.5278" height="67.9586" filterUnits="userSpaceOnUse" color-interpolation-filters="sRGB">
<feFlood flood-opacity="0" result="BackgroundImageFix"/>
<feColorMatrix in="SourceAlpha" type="matrix" values="0 0 0 0 0 0 0 0 0 0 0 0 0 0 0 0 0 0 127 0" result="hardAlpha"/>
<feOffset dy="3.37185"/>
<feGaussianBlur stdDeviation="3.37185"/>
<feColorMatrix type="matrix" values="0 0 0 0 0.317647 0 0 0 0 0.505882 0 0 0 0 0.588235 0 0 0 1 0"/>
<feBlend mode="normal" in2="BackgroundImageFix" result="effect1_dropShadow_4166_407"/>
<feBlend mode="normal" in="SourceGraphic" in2="effect1_dropShadow_4166_407" result="shape"/>
</filter>
</defs>
</svg>
