<svg width="51" height="51" viewBox="0 0 51 51" fill="none" xmlns="http://www.w3.org/2000/svg">
<circle cx="25.5" cy="25.5" r="25.5" fill="#F6C140"/>
<path d="M26 10C34.2845 10 41 16.7155 41 25C41 33.2845 34.2845 40 26 40C23.4469 40.0037 20.9355 39.353 18.7055 38.11L18.248 37.843L13.7 39.181C13.4525 39.2539 13.1905 39.2624 12.9388 39.2057C12.6871 39.149 12.454 39.029 12.2617 38.8569C12.0694 38.6849 11.9242 38.4666 11.8399 38.2228C11.7556 37.9789 11.735 37.7176 11.78 37.4635L11.819 37.3L13.157 32.752C11.7425 30.414 10.9964 27.7327 11 25C11 16.7155 17.7155 10 26 10ZM26 13C23.8515 12.9996 21.7422 13.5761 19.8925 14.6692C18.0428 15.7624 16.5205 17.3321 15.4847 19.2144C14.4488 21.0968 13.9373 23.2227 14.0036 25.3702C14.0698 27.5178 14.7115 29.6081 15.8615 31.423C16.1585 31.891 16.286 32.467 16.1855 33.0385L16.127 33.283L15.4655 35.5345L17.717 34.873C18.3665 34.681 19.0415 34.798 19.577 35.1385C21.1495 36.1342 22.932 36.7504 24.7837 36.9386C26.6354 37.1267 28.5055 36.8815 30.2461 36.2224C31.9867 35.5633 33.5501 34.5083 34.8128 33.1409C36.0754 31.7735 37.0027 30.1312 37.5213 28.3437C38.0399 26.5562 38.1356 24.6725 37.8009 22.8417C37.4661 21.0108 36.7101 19.2829 35.5925 17.7946C34.4749 16.3062 33.0265 15.0982 31.3616 14.2661C29.6968 13.434 27.8612 13.0005 26 13ZM21.653 17.776C21.8191 17.7041 22.001 17.6766 22.1809 17.6964C22.3608 17.7161 22.5325 17.7823 22.679 17.8885C23.435 18.4405 24.035 19.1815 24.551 19.9045L25.0415 20.6155L25.271 20.953C25.4034 21.1466 25.4684 21.3784 25.456 21.6127C25.4435 21.8469 25.3542 22.0705 25.202 22.249L25.0895 22.363L23.7035 23.392C23.6368 23.4403 23.5899 23.5111 23.5714 23.5914C23.5529 23.6717 23.5641 23.7559 23.603 23.8285C23.918 24.3985 24.4745 25.249 25.1135 25.888C25.754 26.527 26.6435 27.121 27.2525 27.4705C27.3845 27.5455 27.5435 27.5215 27.6515 27.424L27.7085 27.3565L28.61 25.984C28.7755 25.7635 29.0199 25.6157 29.292 25.5715C29.5641 25.5273 29.8428 25.5902 30.0695 25.747L30.884 26.3155C31.694 26.893 32.4725 27.514 33.089 28.3015C33.2037 28.4492 33.2765 28.625 33.3 28.8105C33.3235 28.996 33.2967 29.1844 33.2225 29.356C32.6285 30.742 31.124 31.9225 29.561 31.8655L29.3225 31.8505L29.036 31.8235C28.9819 31.8171 28.9279 31.8101 28.874 31.8025L28.517 31.7425C27.131 31.4815 24.9095 30.6955 22.607 28.3945C20.306 26.092 19.52 23.8705 19.259 22.4845L19.199 22.1275L19.1615 21.8155L19.142 21.553C19.1396 21.5155 19.1376 21.478 19.136 21.4405C19.079 19.8745 20.2655 18.37 21.653 17.776Z" fill="#315E6B"/>
</svg>
