<?xml version="1.0" encoding="utf-8"?>
<!-- Generator: Adobe Illustrator 24.1.2, SVG Export Plug-In . SVG Version: 6.00 Build 0)  -->
<svg version="1.1" id="Layer_1" xmlns="http://www.w3.org/2000/svg" xmlns:xlink="http://www.w3.org/1999/xlink" x="0px" y="0px"
	 viewBox="0 0 142.89 139.78" style="enable-background:new 0 0 142.89 139.78;" xml:space="preserve">
<style type="text/css">
	.st0{fill-rule:evenodd;clip-rule:evenodd;}
	.st1{fill:#C1FF05;}
</style>
<g>
	<path class="st0" d="M29.9,50.01c0-4.47,3.62-8.09,8.09-8.1v2.93c-2.85,0-5.16,2.32-5.16,5.17c0,2.86,2.32,5.17,5.17,5.17
		c2.84,0,5.17-2.29,5.17-5.19l2.93,0c0,4.49-3.62,8.12-8.1,8.12C33.52,58.11,29.9,54.48,29.9,50.01"/>
	<path d="M34.43,50.01c0-1.98,1.61-3.59,3.59-3.59c1.98,0,3.59,1.61,3.59,3.59c0,1.99-1.61,3.59-3.59,3.59
		C36.04,53.6,34.43,52,34.43,50.01"/>
	<path d="M40.51,45.46c0-1.14,0.92-2.06,2.06-2.06c1.14,0,2.06,0.92,2.06,2.06c0,1.14-0.92,2.06-2.06,2.06
		C41.43,47.52,40.51,46.6,40.51,45.46"/>
	<g>
		<path d="M103.75,47.5l-0.25,1.23c-0.59,2.67-0.8,3.53-1.31,6.19l-0.11,0.1l-1.62,0.05l-0.08-0.11l0.65-2.74l0.19-0.9
			c-0.7-0.02-1.39-0.03-2.09-0.03c-0.54,0-0.96,0.01-1.38,0.02c-0.24,1.08-0.44,2.02-0.74,3.61l-0.11,0.1l-1.62,0.05l-0.08-0.11
			l0.65-2.74l0.26-1.19c0.43-1.88,0.51-2.29,0.76-4.02l0.11-0.11c0.74-0.1,0.92-0.13,1.68-0.29l0.08,0.11l-0.17,0.79l-0.25,1.23
			l-0.26,1.16c0.58,0.01,1.17,0.02,1.76,0.02c0.62,0,1.03-0.01,1.72-0.03c0.22-1.02,0.31-1.57,0.51-2.89l0.11-0.11
			c0.75-0.1,0.92-0.13,1.69-0.29l0.08,0.11L103.75,47.5"/>
		<path d="M84.22,51.07c0.11-0.46,0.19-0.93,0.19-1.37c0-1.62-1.04-1.89-1.63-1.89c-2.51,0-2.83,3.9-2.83,4.49
			c0,1.28,0.77,1.84,1.63,1.84C83.29,54.14,83.93,52.39,84.22,51.07 M85.88,51.57c-0.35,1.38-1.33,3.76-4.33,3.76
			c-2.13,0-3.29-1.1-3.29-3.28c0-0.28,0.02-0.59,0.07-0.92c0.01-0.08,0.02-0.16,0.03-0.24c0.58-3.6,2.14-7.02,5.57-7.05
			c0.46-0.01,1.38-0.05,2.01-0.2l-0.23,1.44c-0.64,0.16-1.64,0.25-2.23,0.25c-0.73,0.01-1.23,0.28-1.58,0.62
			c-0.17,0.16-0.31,0.35-0.41,0.51c-0.1,0.16-0.18,0.31-0.23,0.43c0.46-0.14,0.96-0.23,1.52-0.23c2.09,0,3.34,1.17,3.34,3.23
			C86.12,50.44,86.02,51.01,85.88,51.57"/>
		<path d="M106.5,50.1c0.38-0.33,0.6-0.54,1.13-1.05c0.55-0.54,1.91-1.94,2.16-2.21l0.18-0.09h1.83l0.05,0.14
			c-0.16,0.14-0.24,0.21-0.88,0.75c-0.25,0.21-0.41,0.37-0.71,0.64l-2.07,1.91l2.47,4.7l-0.1,0.13l-1.77,0.05l-0.13-0.1
			c-0.41-0.99-0.52-1.21-1.1-2.37l-1.12-2.26c-0.35,1.56-0.57,2.55-0.96,4.6l-0.11,0.1l-1.62,0.05l-0.08-0.11l0.65-2.74l0.25-1.19
			c0.43-1.88,0.51-2.29,0.76-4.02l0.11-0.11c0.75-0.1,0.92-0.13,1.69-0.29l0.08,0.11l-0.17,0.79l-0.25,1.23L106.5,50.1"/>
		<path d="M92.42,53c-0.17,0.14-0.35,0.3-0.53,0.41c-0.41,0.26-0.96,0.37-1.39,0.37c-1.46,0-1.87-1.23-1.87-1.99
			c0-0.08,0.03-2.14,1.71-3.28c0.94-0.64,1.98-0.67,2.51-0.67c0.24,0,0.48,0.01,0.72,0.01L92.42,53 M95.48,46.77l-0.08-0.13
			l-2.21-0.01c-1.47,0-3.53,0.09-5.02,1.84c-0.67,0.8-1.28,2.17-1.28,3.43c0,1.99,1.33,3.14,2.96,3.14c1.36,0,2.06-0.59,2.33-0.81
			l-0.11,0.64l0.08,0.11l1.5-0.03l0.11-0.11c0.32-1.9,0.43-2.51,0.99-4.96L95.48,46.77z"/>
	</g>
	<g>
		<path d="M53.35,55.28c-1.73,0-4.23-0.55-3.32-4.55c0.34-1.5,1.38-4.69,5.65-4.69c4.15,0,3.53,3.4,3.28,4.6
			C58.19,54.03,56.12,55.28,53.35,55.28z M53.92,53.52c1.22,0,1.79-1.27,2.16-2.9c0.26-1.15,0.54-2.84-0.93-2.84
			c-1.25,0-1.81,1.2-2.17,2.84C52.63,52.13,52.55,53.52,53.92,53.52z"/>
		<path d="M63.5,55.09c-0.8,0-2.12,0-2.67,0.02L60.74,55c0.15-0.53,0.53-1.97,0.92-3.72c0.32-1.42,0.6-2.67,0.71-3.24
			c-0.67,0.02-1.7,0.02-2.21,0.03l-0.09-0.12c0.13-0.43,0.32-1.18,0.44-1.63l0.15-0.09c0.45,0.02,2.14,0.03,3.51,0.03
			c1.65,0,3.26-0.03,3.6-0.05l0.11,0.09c-0.12,0.4-0.34,1.22-0.45,1.63l-0.16,0.1c-0.66-0.01-1.16-0.01-2.12-0.01
			c-0.08,0.36-0.34,1.43-0.77,3.33c-0.32,1.44-0.59,2.75-0.74,3.59L63.5,55.09z"/>
		<path d="M72.77,48.25c-0.54,0-1.14,0.02-1.41,0.02c-0.08,0.37-0.41,1.74-0.71,3.07c-0.35,1.57-0.67,3.04-0.79,3.65l-0.16,0.1
			c-0.82,0-1.87,0-2.71,0.02L66.91,55c0.17-0.69,0.61-2.55,1.03-4.41c0.42-1.87,0.79-3.7,0.9-4.22l0.14-0.12
			c0.9,0,1.81,0.03,4.05,0.03c1.75,0,3.45-0.05,4.35-0.07l0.08,0.1c-0.12,0.45-0.62,2.6-1.1,4.73c-0.39,1.72-0.75,3.43-0.84,3.92
			l-0.12,0.1c-0.72,0-2.03,0-2.72,0.02l-0.07-0.12c0.15-0.58,0.47-1.93,0.85-3.6c0.29-1.27,0.57-2.62,0.69-3.12
			C73.86,48.26,73.27,48.25,72.77,48.25z"/>
	</g>
</g>
<rect x="19.98" y="81.43" class="st1" width="101.79" height="29.83"/>
<g>
	<path class="st0" d="M29.9,96.34c0-4.47,3.62-8.09,8.09-8.1v2.93c-2.85,0-5.16,2.32-5.16,5.17c0,2.86,2.32,5.17,5.17,5.17
		c2.84,0,5.17-2.29,5.17-5.19l2.93,0c0,4.49-3.62,8.12-8.1,8.12C33.52,104.44,29.9,100.81,29.9,96.34"/>
	<path d="M34.43,96.34c0-1.98,1.61-3.59,3.59-3.59c1.98,0,3.59,1.61,3.59,3.59c0,1.99-1.61,3.59-3.59,3.59
		C36.04,99.93,34.43,98.32,34.43,96.34"/>
	<path d="M40.51,91.79c0-1.14,0.92-2.06,2.06-2.06c1.14,0,2.06,0.92,2.06,2.06c0,1.14-0.92,2.06-2.06,2.06
		C41.43,93.85,40.51,92.93,40.51,91.79"/>
	<g>
		<path d="M103.75,93.83l-0.25,1.23c-0.59,2.67-0.8,3.53-1.31,6.19l-0.11,0.1l-1.62,0.05l-0.08-0.11l0.65-2.74l0.19-0.9
			c-0.7-0.02-1.39-0.03-2.09-0.03c-0.54,0-0.96,0.01-1.38,0.02c-0.24,1.08-0.44,2.02-0.74,3.61l-0.11,0.1l-1.62,0.05l-0.08-0.11
			l0.65-2.74l0.26-1.19c0.43-1.88,0.51-2.29,0.76-4.02l0.11-0.11c0.74-0.1,0.92-0.13,1.68-0.29l0.08,0.11l-0.17,0.79l-0.25,1.23
			l-0.26,1.16c0.58,0.01,1.17,0.02,1.76,0.02c0.62,0,1.03-0.01,1.72-0.03c0.22-1.02,0.31-1.57,0.51-2.89l0.11-0.11
			c0.75-0.1,0.92-0.13,1.69-0.29l0.08,0.11L103.75,93.83"/>
		<path d="M84.22,97.4c0.11-0.46,0.19-0.93,0.19-1.37c0-1.62-1.04-1.89-1.63-1.89c-2.51,0-2.83,3.9-2.83,4.49
			c0,1.28,0.77,1.84,1.63,1.84C83.29,100.47,83.93,98.71,84.22,97.4 M85.88,97.9c-0.35,1.38-1.33,3.76-4.33,3.76
			c-2.13,0-3.29-1.1-3.29-3.28c0-0.28,0.02-0.59,0.07-0.92c0.01-0.08,0.02-0.16,0.03-0.24c0.58-3.6,2.14-7.02,5.57-7.05
			c0.46-0.01,1.38-0.05,2.01-0.2L85.7,91.4c-0.64,0.16-1.64,0.25-2.23,0.25c-0.73,0.01-1.23,0.28-1.58,0.62
			c-0.17,0.16-0.31,0.35-0.41,0.51c-0.1,0.16-0.18,0.31-0.23,0.43c0.46-0.14,0.96-0.23,1.52-0.23c2.09,0,3.34,1.17,3.34,3.23
			C86.12,96.76,86.02,97.34,85.88,97.9"/>
		<path d="M106.5,96.42c0.38-0.33,0.6-0.54,1.13-1.05c0.55-0.54,1.91-1.94,2.16-2.21l0.18-0.09h1.83l0.05,0.14
			c-0.16,0.14-0.24,0.21-0.88,0.75c-0.25,0.21-0.41,0.37-0.71,0.64l-2.07,1.91l2.47,4.7l-0.1,0.13l-1.77,0.05l-0.13-0.1
			c-0.41-0.99-0.52-1.21-1.1-2.37l-1.12-2.26c-0.35,1.56-0.57,2.55-0.96,4.6l-0.11,0.1l-1.62,0.05l-0.08-0.11l0.65-2.74l0.25-1.19
			c0.43-1.88,0.51-2.29,0.76-4.02l0.11-0.11c0.75-0.1,0.92-0.13,1.69-0.29l0.08,0.11l-0.17,0.79l-0.25,1.23L106.5,96.42"/>
		<path d="M92.42,99.32c-0.17,0.14-0.35,0.3-0.53,0.41c-0.41,0.26-0.96,0.37-1.39,0.37c-1.46,0-1.87-1.23-1.87-1.99
			c0-0.08,0.03-2.14,1.71-3.28c0.94-0.64,1.98-0.67,2.51-0.67c0.24,0,0.48,0.01,0.72,0.01L92.42,99.32 M95.48,93.1l-0.08-0.13
			l-2.21-0.01c-1.47,0-3.53,0.09-5.02,1.84c-0.67,0.8-1.28,2.17-1.28,3.43c0,1.99,1.33,3.14,2.96,3.14c1.36,0,2.06-0.59,2.33-0.81
			l-0.11,0.64l0.08,0.11l1.5-0.03l0.11-0.11c0.32-1.9,0.43-2.5,0.99-4.96L95.48,93.1z"/>
	</g>
	<g>
		<path d="M53.35,101.61c-1.73,0-4.23-0.55-3.32-4.55c0.34-1.5,1.38-4.69,5.65-4.69c4.15,0,3.53,3.4,3.28,4.6
			C58.19,100.36,56.12,101.61,53.35,101.61z M53.92,99.84c1.22,0,1.79-1.27,2.16-2.9c0.26-1.15,0.54-2.84-0.93-2.84
			c-1.25,0-1.81,1.2-2.17,2.84C52.63,98.46,52.55,99.84,53.92,99.84z"/>
		<path d="M63.5,101.41c-0.8,0-2.12,0-2.67,0.02l-0.09-0.1c0.15-0.53,0.53-1.97,0.92-3.72c0.32-1.42,0.6-2.67,0.71-3.24
			c-0.67,0.02-1.7,0.02-2.21,0.03l-0.09-0.12c0.13-0.43,0.32-1.18,0.44-1.63l0.15-0.09c0.45,0.02,2.14,0.03,3.51,0.03
			c1.65,0,3.26-0.03,3.6-0.05l0.11,0.09c-0.12,0.4-0.34,1.22-0.45,1.63l-0.16,0.1c-0.66-0.01-1.16-0.01-2.12-0.01
			c-0.08,0.36-0.34,1.43-0.77,3.33c-0.32,1.44-0.59,2.75-0.74,3.59L63.5,101.41z"/>
		<path d="M72.77,94.57c-0.54,0-1.14,0.02-1.41,0.02c-0.08,0.37-0.41,1.74-0.71,3.07c-0.35,1.57-0.67,3.04-0.79,3.65l-0.16,0.1
			c-0.82,0-1.87,0-2.71,0.02l-0.09-0.1c0.17-0.69,0.61-2.55,1.03-4.41c0.42-1.87,0.79-3.7,0.9-4.22l0.14-0.12
			c0.9,0,1.81,0.03,4.05,0.03c1.75,0,3.45-0.05,4.35-0.07l0.08,0.1c-0.12,0.45-0.62,2.6-1.1,4.73c-0.39,1.72-0.75,3.43-0.84,3.92
			l-0.12,0.1c-0.72,0-2.03,0-2.72,0.02l-0.07-0.12c0.15-0.58,0.47-1.93,0.85-3.6c0.29-1.27,0.57-2.62,0.69-3.12
			C73.86,94.59,73.27,94.57,72.77,94.57z"/>
	</g>
</g>
</svg>
