<svg width="51" height="51" viewBox="0 0 51 51" fill="none" xmlns="http://www.w3.org/2000/svg">
<circle cx="25.5" cy="25.5" r="25.5" fill="#F6C140"/>
<path fill-rule="evenodd" clip-rule="evenodd" d="M36.4842 15.517L14.4482 23.4848L21.7894 27.7338L28.2627 21.2588C28.591 20.9307 29.0363 20.7464 29.5005 20.7466C29.9647 20.7467 30.4099 20.9313 30.738 21.2597C31.0662 21.588 31.2504 22.0333 31.2503 22.4975C31.2501 22.9618 31.0655 23.4069 30.7372 23.735L24.2622 30.21L28.5147 37.5495L36.4842 15.517ZM37.0494 11.59C39.1407 10.8323 41.1672 12.8588 40.4094 14.95L31.1659 40.5088C30.4064 42.6053 27.5434 42.8608 26.4252 40.9305L20.7954 31.204L11.0689 25.5743C9.13865 24.456 9.39415 21.593 11.4907 20.8335L37.0494 11.59Z" fill="#315E6B"/>
</svg>
