<svg width="51" height="51" viewBox="0 0 51 51" fill="none" xmlns="http://www.w3.org/2000/svg">
<circle cx="25.5" cy="25.5" r="25.5" fill="#F6C140"/>
<path d="M32.8915 12C34.4962 12 36.0396 12.6168 37.2023 13.7227C38.365 14.8287 39.0582 16.3393 39.1384 17.942L39.1462 18.2547V33.8915C39.1462 35.4962 38.5295 37.0396 37.4235 38.2023C36.3175 39.365 34.807 40.0582 33.2042 40.1384L32.8915 40.1462H17.2547C15.65 40.1462 14.1067 39.5295 12.9439 38.4235C11.7812 37.3175 11.0881 35.807 11.0078 34.2042L11 33.8915V18.2547C11 16.65 11.6168 15.1067 12.7227 13.9439C13.8287 12.7812 15.3393 12.0881 16.942 12.0078L17.2547 12H32.8915ZM32.8915 15.1274H17.2547C16.4657 15.1271 15.7058 15.4251 15.1273 15.9616C14.5487 16.4981 14.1944 17.2334 14.1352 18.0202L14.1274 18.2547V33.8915C14.1271 34.6805 14.4251 35.4404 14.9616 36.019C15.4981 36.5975 16.2334 36.9519 17.0202 37.0111L17.2547 37.0189H32.8915C33.6805 37.0191 34.4404 36.7211 35.019 36.1846C35.5975 35.6482 35.9519 34.9128 36.0111 34.1261L36.0189 33.8915V18.2547C36.0191 17.4657 35.7211 16.7058 35.1846 16.1273C34.6482 15.5487 33.9128 15.1944 33.1261 15.1352L32.8915 15.1274ZM30.4725 21.7339L30.8087 21.2961C31.0389 20.951 31.3967 20.7116 31.8034 20.6303C32.2101 20.5491 32.6325 20.6328 32.9775 20.8629C33.3226 21.0931 33.562 21.4509 33.6433 21.8576C33.7245 22.2644 33.6408 22.6867 33.4107 23.0318C32.7489 23.9918 31.9798 24.8731 31.1183 25.6587C30.8952 25.8649 30.6657 26.0641 30.4303 26.2561C32.1472 27.1693 33.542 28.5703 34.2894 30.0652C34.3888 30.2495 34.4502 30.4519 34.4699 30.6604C34.4896 30.8689 34.4672 31.0792 34.404 31.2789C34.3409 31.4785 34.2383 31.6635 34.1023 31.8227C33.9663 31.982 33.7997 32.1123 33.6124 32.206C33.4251 32.2996 33.2209 32.3547 33.0119 32.3679C32.8029 32.3812 32.5934 32.3523 32.3958 32.283C32.1982 32.2137 32.0165 32.1054 31.8615 31.9646C31.7065 31.8238 31.5814 31.6532 31.4936 31.4631C30.779 30.037 28.9291 28.6422 26.9652 28.3561L26.6368 28.3201V30.7642C26.6368 31.1789 26.472 31.5766 26.1788 31.8698C25.8856 32.1631 25.4878 32.3278 25.0731 32.3278C19.6159 32.3278 15.691 27.8432 15.691 22.1639C15.691 21.7492 15.8558 21.3515 16.149 21.0582C16.4423 20.765 16.84 20.6002 17.2547 20.6002C17.6694 20.6002 18.0672 20.765 18.3604 21.0582C18.6537 21.3515 18.8184 21.7492 18.8184 22.1639C18.8184 25.0942 20.3477 27.948 23.1889 28.9034L23.5094 29.0019V22.1639C23.5094 21.2742 24.2256 20.6487 25.0731 20.6002C25.4255 20.6 25.7677 20.7187 26.0441 20.9373C26.3206 21.1558 26.5151 21.4613 26.5961 21.8043L26.6274 21.981L26.6384 24.952C27.4139 24.6298 28.2099 24.0872 28.9964 23.3601C29.5405 22.8598 30.019 22.3093 30.4725 21.7339Z" fill="#315E6B"/>
</svg>
