<svg width="51" height="51" viewBox="0 0 51 51" fill="none" xmlns="http://www.w3.org/2000/svg">
<circle cx="25.5" cy="25.5" r="25.5" fill="#F6C140"/>
<path d="M33.3185 11.4268C34.9232 11.4268 36.4666 12.0435 37.6293 13.1495C38.792 14.2555 39.4852 15.766 39.5654 17.3687L39.5732 17.6815V33.3183C39.5732 34.923 38.9565 36.4663 37.8505 37.629C36.7445 38.7918 35.234 39.4849 33.6312 39.5652L33.3185 39.573H17.6817C16.077 39.573 14.5337 38.9562 13.3709 37.8502C12.2082 36.7443 11.5151 35.2337 11.4348 33.631L11.427 33.3183V17.6815C11.427 16.0768 12.0438 14.5334 13.1497 13.3707C14.2557 12.208 15.7663 11.5148 17.369 11.4346L17.6817 11.4268H33.3185ZM33.3185 14.5541H17.6817C16.8927 14.5539 16.1328 14.8519 15.5543 15.3883C14.9757 15.9248 14.6214 16.6601 14.5622 17.4469L14.5544 17.6815V33.3183C14.5541 34.1073 14.8521 34.8672 15.3886 35.4457C15.9251 36.0243 16.6604 36.3786 17.4472 36.4378L17.6817 36.4456H33.3185C34.1075 36.4459 34.8674 36.1479 35.446 35.6114C36.0245 35.0749 36.3789 34.3396 36.4381 33.5528L36.4459 33.3183V17.6815C36.4461 16.8925 36.1481 16.1325 35.6117 15.554C35.0752 14.9755 34.3398 14.6211 33.5531 14.5619L33.3185 14.5541ZM30.8995 21.1607L31.2357 20.7228C31.4659 20.3778 31.8237 20.1383 32.2304 20.0571C32.6371 19.9759 33.0595 20.0595 33.4045 20.2897C33.7496 20.5199 33.989 20.8777 34.0703 21.2844C34.1515 21.6911 34.0678 22.1135 33.8377 22.4585C33.1759 23.4185 32.4068 24.2999 31.5453 25.0855C31.3222 25.2916 31.0927 25.4908 30.8573 25.6828C32.5742 26.596 33.969 27.9971 34.7164 29.4919C34.8158 29.6763 34.8772 29.8787 34.8969 30.0872C34.9166 30.2956 34.8942 30.506 34.831 30.7056C34.7679 30.9053 34.6653 31.0902 34.5293 31.2495C34.3933 31.4088 34.2267 31.5391 34.0394 31.6327C33.8521 31.7264 33.6479 31.7815 33.4389 31.7947C33.2299 31.8079 33.0204 31.779 32.8228 31.7097C32.6252 31.6405 32.4435 31.5322 32.2885 31.3914C32.1335 31.2505 32.0084 31.08 31.9206 30.8899C31.206 29.4638 29.3561 28.069 27.3922 27.7828L27.0638 27.7469V30.1909C27.0638 30.6056 26.899 31.0033 26.6058 31.2966C26.3126 31.5898 25.9148 31.7546 25.5001 31.7546C20.0429 31.7546 16.118 27.27 16.118 21.5907C16.118 21.176 16.2828 20.7782 16.576 20.485C16.8693 20.1917 17.267 20.027 17.6817 20.027C18.0964 20.027 18.4942 20.1917 18.7874 20.485C19.0807 20.7782 19.2454 21.176 19.2454 21.5907C19.2454 24.521 20.7747 27.3747 23.6159 28.3301L23.9364 28.4286V21.5907C23.9364 20.7009 24.6526 20.0755 25.5001 20.027C25.8525 20.0267 26.1947 20.1455 26.4711 20.364C26.7476 20.5826 26.9421 20.8881 27.0231 21.231L27.0544 21.4077L27.0654 24.3787C27.8409 24.0566 28.6369 23.514 29.4234 22.7869C29.9675 22.2865 30.446 21.7361 30.8995 21.1607Z" fill="#315E6B"/>
</svg>
