<svg width="51" height="51" viewBox="0 0 51 51" fill="none" xmlns="http://www.w3.org/2000/svg">
<circle cx="25.5" cy="25.5" r="25.5" fill="#F6C140"/>
<path d="M26 11C34.2845 11 41 17.7155 41 26C41 34.2845 34.2845 41 26 41C23.4469 41.0037 20.9355 40.353 18.7055 39.11L18.248 38.843L13.7 40.181C13.4525 40.2539 13.1905 40.2624 12.9388 40.2057C12.6871 40.149 12.454 40.029 12.2617 39.8569C12.0694 39.6849 11.9242 39.4666 11.8399 39.2228C11.7556 38.9789 11.735 38.7176 11.78 38.4635L11.819 38.3L13.157 33.752C11.7425 31.414 10.9964 28.7327 11 26C11 17.7155 17.7155 11 26 11ZM26 14C23.8515 13.9996 21.7422 14.5761 19.8925 15.6692C18.0428 16.7624 16.5205 18.3321 15.4847 20.2144C14.4488 22.0968 13.9373 24.2227 14.0036 26.3702C14.0698 28.5178 14.7115 30.6081 15.8615 32.423C16.1585 32.891 16.286 33.467 16.1855 34.0385L16.127 34.283L15.4655 36.5345L17.717 35.873C18.3665 35.681 19.0415 35.798 19.577 36.1385C21.1495 37.1342 22.932 37.7504 24.7837 37.9386C26.6354 38.1267 28.5055 37.8815 30.2461 37.2224C31.9867 36.5633 33.5501 35.5083 34.8128 34.1409C36.0754 32.7735 37.0027 31.1312 37.5213 29.3437C38.0399 27.5562 38.1356 25.6725 37.8009 23.8417C37.4661 22.0108 36.7101 20.2829 35.5925 18.7946C34.4749 17.3062 33.0265 16.0982 31.3616 15.2661C29.6968 14.434 27.8612 14.0005 26 14ZM21.653 18.776C21.8191 18.7041 22.001 18.6766 22.1809 18.6964C22.3608 18.7161 22.5325 18.7823 22.679 18.8885C23.435 19.4405 24.035 20.1815 24.551 20.9045L25.0415 21.6155L25.271 21.953C25.4034 22.1466 25.4684 22.3784 25.456 22.6127C25.4435 22.8469 25.3542 23.0705 25.202 23.249L25.0895 23.363L23.7035 24.392C23.6368 24.4403 23.5899 24.5111 23.5714 24.5914C23.5529 24.6717 23.5641 24.7559 23.603 24.8285C23.918 25.3985 24.4745 26.249 25.1135 26.888C25.754 27.527 26.6435 28.121 27.2525 28.4705C27.3845 28.5455 27.5435 28.5215 27.6515 28.424L27.7085 28.3565L28.61 26.984C28.7755 26.7635 29.0199 26.6157 29.292 26.5715C29.5641 26.5273 29.8428 26.5902 30.0695 26.747L30.884 27.3155C31.694 27.893 32.4725 28.514 33.089 29.3015C33.2037 29.4492 33.2765 29.625 33.3 29.8105C33.3235 29.996 33.2967 30.1844 33.2225 30.356C32.6285 31.742 31.124 32.9225 29.561 32.8655L29.3225 32.8505L29.036 32.8235C28.9819 32.8171 28.9279 32.8101 28.874 32.8025L28.517 32.7425C27.131 32.4815 24.9095 31.6955 22.607 29.3945C20.306 27.092 19.52 24.8705 19.259 23.4845L19.199 23.1275L19.1615 22.8155L19.142 22.553C19.1396 22.5155 19.1376 22.478 19.136 22.4405C19.079 20.8745 20.2655 19.37 21.653 18.776Z" fill="#315E6B"/>
</svg>
